<svg width="202" height="58" viewBox="0 0 202 58" fill="none" xmlns="http://www.w3.org/2000/svg">
<path d="M18.9914 11.8164C23.1844 11.8164 26.7607 13.4334 29.7204 16.7918C32.6801 20.0257 34.1599 24.006 34.1599 28.7326C34.1599 33.4592 32.6801 37.5638 29.7204 40.7978C26.7607 44.0317 23.1844 45.6487 18.9914 45.6487C14.9218 45.6487 11.7155 44.4049 9.49572 41.7928V44.778H0V0H9.49572V15.7967C11.7155 13.1846 14.9218 11.8164 18.9914 11.8164ZM11.7155 34.4542C13.1954 35.8224 14.9218 36.5687 17.1416 36.5687C19.3614 36.5687 21.0879 35.8224 22.5678 34.4542C24.0476 33.086 24.6642 31.0959 24.6642 28.7326C24.6642 26.3693 23.9243 24.5035 22.5678 23.0109C21.2112 21.6427 19.3614 20.8964 17.1416 20.8964C14.9218 20.8964 13.072 21.6427 11.7155 23.0109C10.359 24.3792 9.61905 26.3693 9.61905 28.7326C9.61905 31.0959 10.2357 33.086 11.7155 34.4542Z" fill="#FAFAFA"/>
<path d="M63.5095 40.7978C60.3031 44.0317 56.3569 45.6487 51.5474 45.6487C46.8612 45.6487 42.7915 44.0317 39.5852 40.7978C36.3788 37.5638 34.6523 33.4591 34.6523 28.7326C34.6523 24.006 36.2555 20.0257 39.5852 16.7917C42.7915 13.5578 46.8612 11.8164 51.5474 11.8164C56.2336 11.8164 60.1798 13.4334 63.5095 16.7917C66.7158 20.0257 68.4423 24.006 68.4423 28.7326C68.4423 33.4591 66.8392 37.4394 63.5095 40.7978ZM44.2714 28.7326C44.2714 30.9715 45.0113 32.7128 46.3679 34.2054C47.7244 35.5736 49.4509 36.3199 51.5474 36.3199C53.6438 36.3199 55.3703 35.5736 56.7268 34.2054C58.0834 32.8372 58.8233 30.9715 58.8233 28.7326C58.8233 26.4937 58.0834 24.7523 56.7268 23.2597C55.3703 21.8915 53.6438 21.1452 51.5474 21.1452C49.4509 21.1452 47.7244 21.8915 46.3679 23.2597C45.0113 24.7523 44.2714 26.4937 44.2714 28.7326Z" fill="#FAFAFA"/>
<path d="M99.6427 29.8519L104.206 12.687H114.318L104.206 44.6535H95.3264L90.2703 27.613L85.2141 44.6535H76.335L66.2227 12.687H76.335L80.8979 29.8519L85.8307 12.687H94.7098L99.6427 29.8519Z" fill="#FAFAFA"/>
<path d="M144.779 32.5883H122.335C123.445 35.5735 125.911 37.0661 129.981 37.0661C132.571 37.0661 134.544 36.1954 136.024 34.5785L143.67 38.9319C140.587 43.2853 136.024 45.5242 129.858 45.5242C124.555 45.5242 120.239 43.9072 117.032 40.6732C113.826 37.4393 112.223 33.459 112.223 28.608C112.223 23.8815 113.826 19.7768 116.909 16.5429C120.115 13.3089 124.185 11.6919 129.118 11.6919C133.681 11.6919 137.503 13.3089 140.587 16.5429C143.67 19.6524 145.273 23.7571 145.273 28.608C145.149 30.1006 145.026 31.3445 144.779 32.5883ZM122.088 25.3741H135.777C134.79 22.0157 132.571 20.2744 128.994 20.2744C125.295 20.3987 123.075 22.0157 122.088 25.3741Z" fill="#FAFAFA"/>
<path d="M187.818 13.1846L181.899 32.7128L174.87 13.1846H168.457V22.8865L177.09 43.6585C176.35 45.6486 175.363 47.0169 174.253 47.7632C173.02 48.5095 171.417 49.007 169.197 49.007V57.9626C173.637 58.2114 177.336 57.2163 180.296 54.9774C183.132 52.7385 185.475 49.1314 187.325 44.156L198.177 13.1846H187.818Z" fill="#FAFAFA"/>
<path d="M197.068 44.7778C199.792 44.7778 202 42.5503 202 39.8025C202 37.0547 199.792 34.8271 197.068 34.8271C194.343 34.8271 192.135 37.0547 192.135 39.8025C192.135 42.5503 194.343 44.7778 197.068 44.7778Z" fill="#8F6DFF"/>
<path d="M165.744 13.1846C163.648 13.0602 161.428 13.3089 159.331 14.0552C158.468 14.4284 157.481 14.8015 156.618 15.2991V12.687H147.369V44.7779H156.618V37.8125V30.7226V29.4788C156.742 28.4837 156.988 27.613 157.358 26.7423C157.851 25.8717 158.345 25.1254 159.208 24.3791C159.948 23.7571 160.811 23.2596 161.674 22.8864C162.661 22.5133 163.524 22.3889 164.511 22.5133C165.004 22.5133 165.374 22.6377 165.867 22.7621V13.1846C165.867 13.3089 165.867 13.1846 165.744 13.1846Z" fill="#FAFAFA"/>
</svg>
