<svg width="164" height="29" viewBox="0 0 164 29" fill="none" xmlns="http://www.w3.org/2000/svg">
<path fill-rule="evenodd" clip-rule="evenodd" d="M22.1871 11.739L14.2326 16.6949V15.1608L22.1871 10.2049V11.739ZM22.1871 19.1089L14.2326 24.0648V22.5306L22.1871 17.5747V19.1089ZM14.2326 18.8458L19.9916 15.1352V16.6693L14.2326 20.38V18.8458ZM23.5569 5.85834L14.2548 0.48784C13.2464 -0.0942539 12.0041 -0.0942539 10.996 0.48784L1.69386 5.85834C0.685504 6.44044 0.0644531 7.51619 0.0644531 8.68066V19.4219C0.0644531 20.5859 0.685504 21.6622 1.69386 22.244L10.996 27.6145C12.0041 28.1969 13.2464 28.1969 14.2548 27.6145L23.5569 22.244C24.5653 21.6622 25.1863 20.5859 25.1863 19.4219V8.68066C25.1863 7.51619 24.5653 6.44044 23.5569 5.85834Z" fill="white"/>
<path fill-rule="evenodd" clip-rule="evenodd" d="M37.3949 13.4888H43.9776C43.8147 12.4902 42.6121 11.349 40.7578 11.349C39.1884 11.349 37.8433 12.0827 37.3949 13.4888ZM44.1815 15.9347L46.6069 16.9737C45.8934 18.7467 43.7126 20.2141 40.8798 20.2141C37.1913 20.2141 34.5419 17.9519 34.5419 14.6303C34.5419 11.4713 37.1503 9.06641 40.8596 9.06641C44.5688 9.06641 46.79 11.4713 46.79 14.5282V15.4251H37.2931C37.6395 16.9737 39.0456 17.8908 40.8798 17.8908C42.4697 17.8908 43.6924 17.1165 44.1815 15.9347Z" fill="white"/>
<path fill-rule="evenodd" clip-rule="evenodd" d="M56.4296 15.1191L52.3944 15.5675C51.131 15.71 50.4787 16.0157 50.4787 16.8105C50.4787 17.6258 51.2735 18.0335 52.598 18.0335C54.3509 18.0335 56.4296 17.2794 56.4296 15.8528V15.1191ZM47.707 16.8921C47.707 14.9152 49.3984 13.8147 51.9665 13.5497L56.4296 13.0811V12.9994C56.4296 12.1031 55.6348 11.3692 53.7597 11.3692C52.1905 11.3692 50.9066 12.0622 50.5398 12.9994L48.0738 12.164C48.7463 10.2892 51.1105 9.06641 53.8617 9.06641C57.2244 9.06641 59.1808 10.4319 59.1808 13.0401V17.2589C59.1808 17.8501 59.4458 18.1149 60.6686 17.8501V19.99C58.3248 20.4586 57.1632 19.7045 56.7151 18.6651C55.7366 19.5822 54.1265 20.2141 52.211 20.2141C49.6432 20.2141 47.707 19.0524 47.707 16.8921Z" fill="white"/>
<path fill-rule="evenodd" clip-rule="evenodd" d="M67.4753 11.349C65.5391 11.349 63.9088 12.4904 63.9088 14.4263C63.9088 16.3828 65.5391 17.5242 67.4753 17.5242C69.4317 17.5242 71.1029 16.3626 71.1029 14.467V14.3857C71.1029 12.5106 69.4317 11.349 67.4753 11.349ZM67.2308 23.8419C64.3573 23.8419 62.0747 22.8231 61.1983 21.0296L63.4604 19.6436C64.0106 20.8666 65.4373 21.6003 67.1901 21.6003C69.2077 21.6003 70.9602 20.6218 70.9602 18.747V18.3392C70.2063 19.1138 68.902 19.827 66.9657 19.827C63.2974 19.827 61.1371 17.3815 61.1371 14.4263C61.1371 11.5327 63.2974 9.06665 66.9657 9.06665C68.9222 9.06665 70.2063 9.75936 70.9602 10.5135V9.27026H73.8135V18.4819C73.8135 21.8244 70.9807 23.8419 67.2308 23.8419Z" fill="white"/>
<path fill-rule="evenodd" clip-rule="evenodd" d="M78.2365 13.4888H84.8193C84.6564 12.4902 83.4538 11.349 81.5994 11.349C80.03 11.349 78.685 12.0827 78.2365 13.4888ZM85.0232 15.9347L87.4482 16.9737C86.7348 18.7467 84.5543 20.2141 81.7214 20.2141C78.0329 20.2141 75.3835 17.9519 75.3835 14.6303C75.3835 11.4713 77.992 9.06641 81.7012 9.06641C85.4102 9.06641 87.6316 11.4713 87.6316 14.5282V15.4251H78.1347C78.4811 16.9737 79.8873 17.8908 81.7214 17.8908C83.3113 17.8908 84.5341 17.1165 85.0232 15.9347Z" fill="white"/>
<path fill-rule="evenodd" clip-rule="evenodd" d="M97.2709 12.1641C96.7818 12.0416 96.5574 12.0009 95.987 12.0009C93.6228 12.0009 92.0537 12.9589 92.0537 15.4249V19.9901H89.2003V9.27016H92.0537V11.1655C92.9707 9.75927 94.3363 9.20874 96.0888 9.20874C96.5779 9.20874 96.9652 9.27016 97.2709 9.35149V12.1641Z" fill="white"/>
<path fill-rule="evenodd" clip-rule="evenodd" d="M108.399 9.27026L110.967 16.5255L113.576 9.27026H116.51L112.291 19.9899H109.724L107.095 12.8569L104.465 19.9899H101.898L97.6586 9.27026H100.695L103.365 16.5255L105.913 9.27026H108.399Z" fill="white"/>
<path fill-rule="evenodd" clip-rule="evenodd" d="M126.129 14.6302C126.129 12.6124 124.559 11.4508 122.644 11.4508C120.687 11.4508 119.138 12.6124 119.138 14.6302C119.138 16.6683 120.687 17.8299 122.644 17.8299C124.559 17.8299 126.129 16.6683 126.129 14.6302ZM128.88 14.6302C128.88 17.9928 126.129 20.2143 122.644 20.2143C119.138 20.2143 116.367 17.9928 116.367 14.6302C116.367 11.2878 119.138 9.06665 122.644 9.06665C126.129 9.06665 128.88 11.2878 128.88 14.6302Z" fill="white"/>
<path fill-rule="evenodd" clip-rule="evenodd" d="M138.54 12.1641C138.051 12.0416 137.827 12.0009 137.256 12.0009C134.892 12.0009 133.323 12.9589 133.323 15.4249V19.9901H130.47V9.27016H133.323V11.1655C134.24 9.75927 135.605 9.20874 137.358 9.20874C137.847 9.20874 138.234 9.27016 138.54 9.35149V12.1641Z" fill="white"/>
<path fill-rule="evenodd" clip-rule="evenodd" d="M142.718 14.2225L148.506 9.27031H152.44L146.896 13.8759L152.603 19.99H149.016L144.858 15.588L142.718 17.361V19.99H139.865V5.35718H142.718V14.2225Z" fill="white"/>
<path fill-rule="evenodd" clip-rule="evenodd" d="M153.785 16.0976C154.987 17.402 156.597 17.9929 158.452 17.9929C160.021 17.9929 161.06 17.6462 161.06 16.8514C161.06 16.0365 160.082 16.0365 157.616 15.7308C154.926 15.3841 152.786 14.9155 152.786 12.6329C152.786 10.5133 154.824 9.06641 158.085 9.06641C160.632 9.06641 162.63 9.94253 163.628 11.084L161.998 12.8163C161.101 11.8381 159.674 11.2674 157.942 11.2674C156.353 11.2674 155.578 11.6956 155.578 12.3272C155.578 12.9994 156.332 13.0813 158.656 13.3666C161.468 13.6927 163.893 14.1002 163.893 16.5659C163.893 19.0118 161.386 20.2143 158.329 20.2143C155.741 20.2143 153.377 19.3991 152.154 17.9724L153.785 16.0976Z" fill="white"/>
</svg>
